:FULLY-SPECIFIED
:FORCE-ALL-JOINTS-BE-3DOF
:DEGREES
146
root 8.53748 16.4312 -15.1327 6.75125 9.21557 2.25525
lfemur 7.70475 4.51765 -19.7443
ltibia 31.5151 -0 0
lfoot -4.93948 6.74172 0.589307
ltoes -10.3227 0 0
rfemur -36.6434 6.5435 14.6265
rtibia 27.1818 -0 0
rfoot -18.257 -5.82957 0.383135
rtoes -18.8304 0 0
lowerback -6.4197 -2.92859 -3.36241
upperback -1.48713 -3.73168 2.84144
thorax 2.48441 -1.90077 4.45886
lowerneck -19.0389 -6.49031 -14.0769
upperneck 17.6916 -7.80971 12.9406
head 9.87491 -3.22273 5.79242
lclavicle -4.02189e-14 3.95643e-15 -2.24156e-30
lhumerus -38.3079 -19.7427 98.0241
lradius 33.7694 -0 0
lwrist 7.37689 0 0
lhand -4.79892 -20.941 0.125739
lfingers 7.12502 -0 0
lthumb 20.9803 7.87004 0.0999196
rclavicle -4.02189e-14 3.95643e-15 -2.24156e-30
rhumerus -46.8746 7.91057 -81.9025
rradius 32.8233 -0 0
rwrist -17.9094 0 0
rhand -28.5743 -24.9592 -0.0200495
rfingers 7.12502 -0 0
rthumb -1.94055 -54.9322 -0.0191711
147
root 8.50282 16.4552 -14.9201 6.81088 9.27396 2.05574
lfemur 6.89187 4.7644 -19.3335
ltibia 33.4071 -0 0
lfoot -4.37855 7.17991 0.578543
ltoes -10.5084 0 0
rfemur -36.1827 6.19333 15.2473
rtibia 27.4585 -0 0
rfoot -17.883 -5.40902 0.378172
rtoes -18.5967 0 0
lowerback -6.28846 -2.86286 -3.17
upperback -1.50474 -3.66067 2.88531
thorax 2.37614 -1.86172 4.40881
lowerneck -19.0271 -6.54246 -14.1107
upperneck 17.4849 -7.88081 13.0529
head 9.81799 -3.24663 5.82225
lclavicle -3.95926e-14 5.35992e-15 -2.26894e-30
lhumerus -38.764 -19.2932 98.0029
lradius 33.2911 -0 0
lwrist 7.14472 0 0
lhand -4.45705 -20.7512 0.121354
lfingers 7.12502 -0 0
lthumb 21.3088 8.02574 0.0965152
rclavicle -3.95926e-14 5.35992e-15 -2.26894e-30
rhumerus -46.8259 8.01258 -81.8871
rradius 32.8433 -0 0
rwrist -17.9274 0 0
rhand -28.5237 -25.0553 -0.020066
rfingers 7.12502 -0 0
rthumb -1.8917 -55.0289 -0.0191755
148
root 8.46921 16.4786 -14.717 6.86936 9.32621 1.85569
lfemur 6.06582 5.0131 -18.9305
ltibia 35.2788 -0 0
lfoot -3.82824 7.61617 0.563156
ltoes -10.6931 0 0
rfemur -35.7143 5.8415 15.8656
rtibia 27.7338 -0 0
rfoot -17.512 -4.98994 0.370317
rtoes -18.3602 0 0
lowerback -6.15789 -2.79611 -2.97734
upperback -1.52186 -3.58769 2.92891
thorax 2.2687 -1.82181 4.35851
lowerneck -19.0152 -6.59374 -14.1439
upperneck 17.2793 -7.95051 13.1649
head 9.76128 -3.27006 5.85203
lclavicle -3.89449e-14 6.75036e-15 -2.2789e-30
lhumerus -39.2165 -18.8434 97.9755
lradius 32.8137 -0 0
lwrist 6.91423 0 0
lhand -4.12184 -20.5645 0.115929
lfingers 7.12502 -0 0
lthumb 21.631 8.17892 0.092285
rclavicle -3.89449e-14 6.75036e-15 -2.2789e-30
rhumerus -46.7731 8.11587 -81.8729
rradius 32.8712 -0 0
rwrist -17.9492 0 0
rhand -28.4756 -25.1516 -0.0199389
rfingers 7.12502 -0 0
rthumb -1.84523 -55.1258 -0.0190423
149
root 8.4368 16.5014 -14.5246 6.92658 9.37236 1.65564
lfemur 5.22871 5.26257 -18.5366
ltibia 37.1227 -0 0
lfoot -3.29083 8.04882 0.543367
ltoes -10.8764 0 0
rfemur -35.2387 5.48953 16.4794
rtibia 28.0052 -0 0
rfoot -17.1455 -4.57344 0.359662
rtoes -18.1219 0 0
lowerback -6.02854 -2.72847 -2.78499
upperback -1.53841 -3.51289 2.97208
thorax 2.16255 -1.78111 4.30808
lowerneck -19.0029 -6.64402 -14.1764
upperneck 17.0755 -8.01865 13.2764
head 9.70491 -3.29298 5.88167
lclavicle -3.82767e-14 8.12226e-15 -2.27083e-30
lhumerus -39.6646 -18.3951 97.9425
lradius 32.3389 -0 0
lwrist 6.68655 0 0
lhand -3.79471 -20.3819 0.109558
lfingers 7.12502 -0 0
lthumb 21.9454 8.32893 0.0873008
rclavicle -3.82767e-14 8.12226e-15 -2.27083e-30
rhumerus -46.7162 8.21998 -81.8596
rradius 32.9075 -0 0
rwrist -17.9748 0 0
rhand -28.4302 -25.248 -0.0196681
rfingers 7.12502 -0 0
rthumb -1.80143 -55.2227 -0.0187716
